<?xml version="1.0" encoding="utf-8"?>
<!-- Generator: Adobe Illustrator 21.0.0, SVG Export Plug-In . SVG Version: 6.00 Build 0)  -->
<svg version="1.1" id="Layer_1" xmlns="http://www.w3.org/2000/svg" xmlns:xlink="http://www.w3.org/1999/xlink" x="0px" y="0px"
	 viewBox="0 0 512 512" style="enable-background:new 0 0 512 512;" xml:space="preserve">
<g>
	<path d="M491.9,156.4c-19.5-46-51.9-85-92.7-112.6C358.3,16.1,308.9,0,256,0c-35.3,0-69,7.2-99.6,20.1c-46,19.5-85,51.9-112.6,92.7
		C16.1,153.7,0,203.1,0,256c0,35.3,7.2,69,20.1,99.6c19.5,46,51.9,85,92.7,112.6C153.7,495.9,203.1,512,256,512
		c35.3,0,69-7.2,99.6-20.1c46-19.5,85-51.9,112.6-92.7C495.9,358.3,512,308.9,512,256C512,220.7,504.8,187,491.9,156.4z M472.6,256
		c0,29.9-6.1,58.4-17,84.3c-16.4,38.8-43.9,72-78.5,95.3c-17.3,11.7-36.3,20.9-56.7,27.3c-20.3,6.3-41.9,9.7-64.4,9.7
		c-29.9,0-58.4-6.1-84.3-17c-38.8-16.4-72-43.9-95.3-78.5c-11.7-17.3-20.9-36.3-27.3-56.7c-6.3-20.3-9.7-41.9-9.7-64.4
		c0-29.9,6.1-58.4,17-84.3c16.4-38.8,43.9-72,78.5-95.3c17.3-11.7,36.3-20.9,56.7-27.3c20.3-6.3,41.9-9.7,64.4-9.7
		c29.9,0,58.4,6.1,84.3,17c38.8,16.4,72,43.9,95.3,78.5c11.7,17.3,20.9,36.3,27.3,56.7C469.2,211.9,472.6,233.5,472.6,256l19.7,0v0
		H472.6z"/>
	<path d="M354.4,197.3c-10.9,0-19.6,8.8-19.6,19.7v29.4c0,4.4-0.6,8.6-1.6,12.8c-1.9,7.3-5.3,14.5-10.2,21.1
		c-3.6,5-8.1,9.7-13.1,13.9c-7.5,6.3-16.3,11.5-25.6,15s-19,5.4-28.3,5.4c-9.5,0-19.3-1.9-28.7-5.6c-7.1-2.7-13.8-6.4-20-10.8
		c-9.2-6.6-16.9-14.8-22.1-23.7c-2.6-4.4-4.6-9-6-13.7c-1.3-4.7-2.1-9.5-2.1-14.4V217c0-10.9-8.8-19.7-19.7-19.7
		c-10.9,0-19.7,8.8-19.7,19.7v29.4c0,7.8,1,15.3,2.9,22.6c3.2,12.7,9,24.3,16.6,34.6c5.6,7.7,12.2,14.7,19.5,20.8
		c10.9,9.2,23.5,16.5,36.9,21.7c7.3,2.8,14.9,4.9,22.7,6.3v21.7h-19.7c-10.9,0-19.7,8.8-19.7,19.7s8.8,19.7,19.7,19.7H254
		c0.7,0.1,1.3,0.1,2,0.1s1.3,0,2-0.1h37.4c10.9,0,19.7-8.8,19.7-19.7s-8.8-19.7-19.7-19.7h-19.7v-21.8c7.9-1.4,15.7-3.6,23.2-6.5
		c10.2-4,19.9-9.2,28.7-15.6c13.3-9.5,24.7-21.6,33.1-35.8c4.2-7.1,7.5-14.7,9.8-22.8c2.3-8.1,3.6-16.6,3.6-25.3V217
		C374.1,206.1,365.3,197.3,354.4,197.3z"/>
	<path d="M256,295.5c32.7,0,59.1-26.5,59.1-59.1v-78.8c0-32.7-26.5-59.1-59.1-59.1c-32.6,0-59.1,26.4-59.1,59.1v78.8
		C196.9,269.1,223.3,295.5,256,295.5z"/>
</g>
</svg>
